# xmcd
#
# Track frame offsets: 
#        182
#        83357
#        119582
#        153857
#        171182
#        203957
#        245432
#        270482
#
# Disc length: 4097 seconds
#
# Revision: 8
# Processed by: cddbd v1.5.2PL0 Copyright (c) Steve Scherf et al.
# Submitted via: ExactAudioCopy v0.99pb4
#
DISCID=5f0fff08
DTITLE=John Eliot Gardiner - Philharmonia Orchestra - Holst: The Plan
DTITLE=ets, Grainger: The Warriors
DYEAR=1995
DGENRE=Classical
TTITLE0=Percy Grainger: The Warriors
TTITLE1=Holst: The Planets, op. 32 - 1. Mars, the Bringer of War
TTITLE2=Holst: The Planets, op. 32 - 2. Venus, the Bringer of Peace
TTITLE3=Holst: The Planets, op. 32 - 3. Mercury, the Winged Messenger
TTITLE4=Holst: The Planets, op. 32 - 4. Jupiter, the Bringer of Jollit
TTITLE4=y
TTITLE5=Holst: The Planets, op. 32 - 5. Saturn, the Bringer of Old Age
TTITLE6=Holst: The Planets, op. 32 - 6. Uranus, the Magician
TTITLE7=Holst: The Planets, op. 32 - 7. Neptune, the Mystic
EXTD=Women's Voices of the Moteverdi Choir (8)  Assistant conductor: A
EXTD=chim Holub (1)
EXTT0=Music to an imaginary ballet for orchestra and 3 pianos
EXTT1=Allegro
EXTT2=Adagio - Andante - Animato - Tempo I
EXTT3=Vivace
EXTT4=Allegro giocoso - Andante maestoso - Tempo I - Maestoso - Lento 
EXTT4=maestoso - Presto
EXTT5=Adagio - Andante
EXTT6=Allegro - Lento - Allegro - Largo
EXTT7=Andante - Allegretto
PLAYORDER=
